<?xml version="1.0" encoding="UTF-8"?>
<svg id="Layer_1" data-name="Layer 1" xmlns="http://www.w3.org/2000/svg" viewBox="0 0 633.55 633.46">
  <defs>
    <style>
      .cls-1 {
        fill: #282827;
        stroke-width: 0px;
      }
    </style>
  </defs>
  <g>
    <path class="cls-1" d="m129.47,558.93c-1.47,1.86-4.07,2.16-5.91.7-1.86-1.47-2.16-4.07-.69-5.93,1.46-1.84,4.04-2.12,5.9-.64,1.84,1.46,2.16,4.03.7,5.87Z"/>
    <path class="cls-1" d="m108.52,528.83c2.97,2.89,3.89,6.56,1.26,9.56l-3.95-3.85c.9-1.08.65-1.99-.03-2.65-.66-.64-1.5-.8-2.11-.18-2.06,2.15,5.38,7.45.81,12.02-2.54,2.61-6.08,1.89-8.89-.86-3.06-2.98-3.61-6.43-1.16-9.2l4.02,3.92c-.77.87-.63,1.74.05,2.41.53.55,1.28.66,1.9.01,1.93-1.98-5.1-7.59-.93-11.86,2.28-2.34,5.88-2.41,9.04.67Z"/>
    <path class="cls-1" d="m84.97,514.96l4.16,4.74,5.61-4.93,3.42,3.89-13.97,12.28-3.42-3.88,5.25-4.62-4.16-4.74-5.25,4.62-3.42-3.88,13.97-12.29,3.42,3.89-5.61,4.93Z"/>
    <path class="cls-1" d="m62.31,504.41c-2.76-3.7-2.04-7.13.62-9.12,1.94-1.45,4.42-1.66,6.76.05l3.3-7.7,3.46,4.63-3.28,7.06.33.44,5.49-4.1,3.1,4.14-14.89,11.13-4.88-6.53Zm3.72-2.25l1.53,2.05,3.1-2.32-1.53-2.05c-.84-1.12-1.81-1.28-2.83-.52-.93.7-1.12,1.72-.28,2.84Z"/>
    <path class="cls-1" d="m50.21,479.27l3.63,5.66,2.55-1.64-3.21-4.99,3.31-2.12,3.21,4.99,2.82-1.81-3.63-5.66,3.48-2.24,6.43,10-15.64,10.05-6.43-10,3.48-2.24Z"/>
    <path class="cls-1" d="m39.96,461.32l3.25,5.89,2.65-1.47-2.87-5.19,3.44-1.9,2.87,5.19,2.93-1.62-3.25-5.89,3.62-2,5.76,10.41-16.27,9-5.75-10.41,3.62-2Z"/>
    <path class="cls-1" d="m46.29,440.99c1.75,3.75,1.31,7.51-2.21,9.38l-2.33-5c1.22-.69,1.31-1.63.91-2.49-.39-.84-1.12-1.28-1.91-.92-2.69,1.28,2.38,8.87-3.51,11.52-3.3,1.54-6.35-.39-8.01-3.95-1.8-3.87-1.09-7.29,2.18-9.01l2.37,5.09c-1.03.54-1.21,1.41-.81,2.27.3.7.96,1.07,1.77.69,2.51-1.17-2.07-8.9,3.33-11.41,2.97-1.38,6.35-.16,8.21,3.83Z"/>
    <path class="cls-1" d="m29.21,419.67l2.21,5.91,6.99-2.61,1.81,4.84-17.43,6.51-1.81-4.85,6.55-2.45-2.21-5.91-6.55,2.45-1.81-4.85,17.42-6.51,1.81,4.84-6.99,2.61Z"/>
    <path class="cls-1" d="m25.77,393.99l1.78,6.35,3.19.15,1.47,5.23-19.74-1.5-1.61-5.74,16.09-11.53,1.48,5.26-2.65,1.78Zm-8.71,5.87l6.33.28-1.08-3.84-5.25,3.56Z"/>
    <path class="cls-1" d="m22.5,363.08c.65,4.09-.79,7.58-4.69,8.42l-.87-5.44c1.36-.33,1.7-1.21,1.55-2.14-.15-.91-.73-1.54-1.59-1.4-2.94.5-.13,9.18-6.53,10.13-3.59.58-6-2.11-6.62-5.99-.68-4.22.94-7.31,4.56-8.07l.89,5.55c-1.14.24-1.55,1.02-1.4,1.96.09.76.63,1.29,1.52,1.15,2.73-.44.44-9.12,6.32-10.07,3.23-.52,6.16,1.58,6.85,5.93Z"/>
    <path class="cls-1" d="m11.9,337.91l.51,6.28,7.44-.6.42,5.15-18.53,1.5-.42-5.15,6.96-.57-.51-6.28-6.96.56-.42-5.15,18.53-1.5.42,5.15-7.44.6Z"/>
    <path class="cls-1" d="m0,316.13c-.08-4.62,2.53-6.98,5.85-7.03,2.43-.04,4.56,1.25,5.45,4l7.19-4.31.09,5.78-6.8,3.8v.55s6.87-.11,6.87-.11l.08,5.17-18.59.3L0,316.13Zm4.33.35l.04,2.56,3.88-.06-.04-2.56c-.02-1.4-.72-2.1-1.99-2.08-1.16.02-1.91.74-1.89,2.14Z"/>
    <path class="cls-1" d="m5.3,288.51l-.46,6.71,3.03.21.4-5.92,3.92.27-.4,5.92,3.34.23.46-6.71,4.13.28-.81,11.87-18.56-1.27.81-11.87,4.13.28Z"/>
    <path class="cls-1" d="m21.65,274.86c-.57,4.1-2.97,7.02-6.95,6.68l.76-5.46c1.4.09,1.98-.66,2.11-1.6.13-.92-.25-1.69-1.11-1.81-2.96-.38-2.81,8.75-9.2,7.78-3.61-.5-5.12-3.77-4.59-7.67.59-4.23,3.04-6.72,6.72-6.39l-.77,5.57c-1.16-.11-1.78.53-1.91,1.47-.13.75.23,1.42,1.12,1.54,2.74.38,3.08-8.6,8.99-7.79,3.24.45,5.43,3.31,4.82,7.67Z"/>
    <path class="cls-1" d="m5.35,257.59l3.13-14.71,4.03.86-1.03,4.85,14.17,3.02-1.08,5.06-14.17-3.02-1.02,4.8-4.03-.86Z"/>
    <path class="cls-1" d="m24.49,226.76l-1.79,6.04,7.16,2.12-1.47,4.96-17.83-5.27,1.47-4.96,6.7,1.98,1.79-6.04-6.7-1.98,1.47-4.96,17.83,5.27-1.47,4.96-7.16-2.12Z"/>
    <path class="cls-1" d="m37.18,204.17l-2.4,6.14,2.46,2.04-1.98,5.06-14.86-13.08,2.17-5.55,19.78.47-1.98,5.09-3.19-.17Zm-10.49-.55l4.88,4.03,1.45-3.71-6.33-.32Z"/>
    <path class="cls-1" d="m42.48,178.49c-2.11-1.1-2.89-3.59-1.8-5.67,1.1-2.11,3.59-2.89,5.7-1.79,2.08,1.09,2.84,3.57,1.74,5.67-1.09,2.08-3.56,2.88-5.64,1.79Z"/>
    <path class="cls-1" d="m68.09,152.3c-2.28,3.45-5.71,5.05-9.14,3.03l3.04-4.6c1.22.68,2.07.26,2.59-.53.51-.77.51-1.63-.22-2.1-2.5-1.62-6.31,6.67-11.65,3.04-3.03-2.01-2.99-5.61-.83-8.89,2.35-3.56,5.63-4.75,8.81-2.86l-3.1,4.68c-1-.6-1.83-.29-2.35.5-.44.62-.4,1.38.34,1.87,2.31,1.53,6.49-6.42,11.46-3.14,2.73,1.8,3.47,5.32,1.04,9Z"/>
    <path class="cls-1" d="m81.79,133.28c-3.25,4.16-9,5.09-13.4,1.65-4.41-3.44-4.87-9.23-1.63-13.39,3.26-4.18,8.96-5.08,13.37-1.64,4.41,3.44,4.91,9.23,1.66,13.38Zm-3.78-2.96c1.64-2.1,1.16-4.52-1.11-6.29-2.31-1.8-4.75-1.67-6.39.43-1.66,2.12-1.18,4.5,1.13,6.31,2.27,1.77,4.72,1.68,6.37-.44Z"/>
    <path class="cls-1" d="m78.72,107.49l8.5-9.31,3.04,2.77-5.01,5.49,2.42,2.2,3.7-4.05,2.9,2.65-3.7,4.05,5.38,4.91-3.48,3.82-13.74-12.54Z"/>
    <path class="cls-1" d="m92.56,92.68l10.88-10.38,2.84,2.98-3.59,3.42,10,10.48-3.74,3.57-10-10.48-3.55,3.39-2.84-2.98Z"/>
    <path class="cls-1" d="m109.27,76.86l4.38-3.48,9.6,8.61-5.62-11.77,4.44-3.53,10.07,8.1-6.15-11.21,4.38-3.48,8,17.39-4.98,3.95-9.09-7.33,5.04,10.54-4.98,3.95-15.1-11.75Z"/>
    <path class="cls-1" d="m156.25,61.65l-5.54,3.58.8,3.09-4.56,2.95-4.4-19.3,5.01-3.24,15.77,11.96-4.59,2.97-2.49-2Zm-8.18-6.59l1.6,6.13,3.35-2.16-4.95-3.96Z"/>
    <path class="cls-1" d="m167.63,37.05c4.06-2.19,7.36-.97,8.93,1.96,1.15,2.14.99,4.62-1.05,6.68l7.13,4.4-5.09,2.74-6.5-4.29-.49.26,3.25,6.04-4.55,2.45-8.81-16.37,7.18-3.86Zm1.68,4.01l-2.25,1.21,1.84,3.41,2.25-1.21c1.23-.66,1.53-1.6.93-2.72-.55-1.02-1.54-1.36-2.77-.7Z"/>
    <path class="cls-1" d="m194.31,28.79l-6.13,2.76,1.24,2.77,5.41-2.43,1.61,3.58-5.41,2.43,1.37,3.05,6.13-2.76,1.7,3.78-10.85,4.88-7.63-16.96,10.85-4.88,1.7,3.78Z"/>
    <path class="cls-1" d="m230.5,21.26c1.65,5.12-.73,10.02-6.38,11.84l-7,2.26-5.71-17.69,7-2.26c5.65-1.82,10.41.66,12.09,5.85Zm-8.15,7.62c2.84-.91,4.1-3.1,3.16-6.01-.95-2.94-3.26-3.99-6.09-3.08l-1.71.55,2.93,9.08,1.71-.55Z"/>
    <path class="cls-1" d="m248.81,11.33l-6.54,1.58.71,2.95,5.77-1.4.92,3.82-5.77,1.4.79,3.26,6.54-1.58.97,4.03-11.56,2.8-4.37-18.08,11.56-2.8.97,4.03Z"/>
    <path class="cls-1" d="m269.18,3.37l5.44-.89-3.32,19.4-6.54,1.07-9.36-17.32,5.47-.89,6.34,12.57,1.97-13.93Z"/>
    <path class="cls-1" d="m294.99,4.71l-6.7.59.26,3.02,5.91-.52.34,3.92-5.91.52.29,3.34,6.7-.59.36,4.13-11.85,1.04-1.62-18.53,11.85-1.04.36,4.13Z"/>
    <path class="cls-1" d="m308.76,0l.35,14.64,5.78-.14.1,3.96-10.95.27-.45-18.59,5.17-.13Z"/>
    <path class="cls-1" d="m331.11,19.07c-5.27-.26-9.34-4.42-9.07-10.01.28-5.59,4.74-9.3,10.01-9.04,5.3.26,9.32,4.4,9.04,9.98-.28,5.59-4.71,9.33-9.98,9.07Zm.24-4.8c2.66.13,4.36-1.66,4.5-4.53.15-2.92-1.37-4.85-4.03-4.98-2.69-.13-4.36,1.63-4.5,4.56-.14,2.87,1.35,4.82,4.03,4.95Z"/>
    <path class="cls-1" d="m356.55,14.9l-2.54-.33-.81,6.23-5.13-.67,2.4-18.44,7.67,1c4.58.6,6.57,3.49,6.1,7.05-.42,3.22-3.01,5.78-7.7,5.17Zm.03-4.15c1.54.2,2.27-.5,2.43-1.71.16-1.23-.37-2.1-1.91-2.3l-2.04-.27-.52,4,2.04.27Z"/>
    <path class="cls-1" d="m384.35,11.48l-6.59-1.33-.6,2.97,5.82,1.18-.78,3.85-5.82-1.18-.66,3.28,6.59,1.33-.82,4.06-11.66-2.36,3.69-18.23,11.66,2.36-.82,4.06Z"/>
    <path class="cls-1" d="m401.88,11.71c4.45,1.24,5.97,4.4,5.08,7.6-.65,2.34-2.49,4.02-5.38,4.09l2.09,8.11-5.56-1.55-1.72-7.6-.53-.15-1.84,6.6-4.98-1.39,4.99-17.91,7.85,2.19Zm-1.57,4.05l-2.47-.69-1.04,3.73,2.46.69c1.35.38,2.22-.09,2.56-1.31.31-1.12-.17-2.05-1.52-2.42Z"/>
    <path class="cls-1" d="m424.9,29.6c.88-2.21,3.27-3.24,5.46-2.38,2.21.88,3.24,3.27,2.37,5.48-.87,2.18-3.25,3.19-5.46,2.32-2.18-.87-3.23-3.24-2.36-5.42Z"/>
  </g>
  <g>
    <path class="cls-1" d="m265.79,240.67c-.56-.63-1.67-1.63-1.29-1.42.58.32,1.02.83,1.29,1.42Z"/>
    <path class="cls-1" d="m265.94,241.09c-.04-.14-.08-.28-.15-.42.22.27.35.46.15.42Z"/>
    <path class="cls-1" d="m326.13,200.53c1.5,1.24,3.12,2.33,4.81,3.27-2.01-.59-4.24-.81-6.32-.59-1,.11-1.97.41-2.96.62-4.18.9-8.91.32-12.38,2.82.44-.77-.39-1.77-1.29-1.82-.88-.07-1.7.46-2.43.97-1.15.79-2.3,1.57-3.44,2.36.29-.84.6-1.68.9-2.53-2.29,1.16-4.38,2.74-6.15,4.62-.32-.44-.63-.87-.95-1.31-2.69,2.12-5.39,4.24-8.08,6.36-.27.21-.55.42-.88.44-.59.01-.98-.59-1.25-1.11-.53-1.04-1.08-2.08-1.61-3.12-1.04-.01-2.05.59-2.54,1.5-.8.15-1.49-.55-2.08-1.12-.59-.56-1.54-.91-2.18-.38-.81-5.53,2.08-11.43,6.95-14.16-1.28,1.71-2.18,3.72-2.61,5.82,2.79-3.28,6.11-6.12,9.75-8.41-1.18,1.18-2.19,2.53-2.99,4,2.36-2.36,5.59-3.64,8.83-4.41,3.23-.79,6.55-1.12,9.78-1.95,3.21-.83,6.47-2.16,9.74-1.56,1.02.18,2.08.56,3.09.29,1.02-.27,1.81-1.6,1.11-2.39,2.79.7,5.5,1.8,8,3.24.48.27.94.56,1.31.95.31.34.53.73.83,1.07.87.98,2.23,1.32,3.44,1.84,1.53.67,2.88,1.68,4.21,2.68,1,.74,2.02,1.53,2.54,2.65-4.11-2.37-8.32-4.62-12.6-6.71-2.61-1.28-5.82-2.47-8.28-.91,1.7.45,3.38.9,5.07,1.35-.6.51-1.19,1.02-1.8,1.53.45.28.95.46,1.49.53-.24.42-.59.79-1,1.05,1.85-.86,4.27-.27,5.52,1.35-1.26-.27-2.67.18-3.54,1.15Z"/>
    <path class="cls-1" d="m345.09,193.57c.7.98,1.42,1.97,2.12,2.95-.94-.01-1.6-.91-2.02-1.74-.44-.84-.87-1.8-1.75-2.12-.29-.1-.62-.13-.87-.31-.41-.29-.52-.91-.97-1.14-.25-.13-.56-.1-.84-.14-1.12-.15-1.71-1.42-2.65-2.05-.48-.32-1.05-.48-1.52-.83-.55-.45-1.01-1.15-1.42-1.7,1.35-.18,2.65.88,3.47,1.87.32.41.65.84,1.14,1,.48.17,1.15-.15,1.09-.66-.03-.35-.36-.59-.66-.79-1.18-.8-2.19-1.87-2.92-3.09,2.69,1.78,5.39,3.57,8.08,5.35.52.34,1.04.69,1.43,1.19.58.74.77,1.73,1.19,2.57-1.18-1.31-3.48-1.71-4.31-3.34-.08-.14-.14-.29-.28-.38-.38-.25-.84.34-.7.77.15.44.59.67.95.95.58.45,1.01,1.04,1.43,1.63Z"/>
    <path class="cls-1" d="m361.62,251.26c.65-.32,1.3-.64,1.97-.95.86-.42,1.77-.89,2.23-1.74-.77.26-1.59.33-2.39.18-1.56-.28-3.17-1.31-4.62-.68,1.31-1.05,2.46-2.31,3.43-3.69-1.44.69-2.75,1.56-4.26,2.03-3.22-1.12-6.48-2.24-9.51-3.81-.53-.26-1.05-.54-1.62-.66-.47-.11-.94-.11-1.41-.1-1.45.04-2.92.21-4.35.46-.03-.11.06-.06.03-.17-11.28-7.46-25.26-10.72-38.65-9.04-1.33.17-2.71.36-3.96-.12,1.51-2.6,3.71-4.82,6.32-6.35-2.66.86-5.06,2.35-7,4.35-.44.46-.9.95-1.52,1.01-.5.06-1.02-.19-1.49-.03-.68.24-.82,1.09-.84,1.81-.94-.51-1.74-1.3-2.27-2.26-.51.97-.4,2.23.26,3.09-1.58-.71-2.95-1.87-3.92-3.29-.53,1.12.32,2.38,1.19,3.27.87.87,1.88,1.88,1.79,3.1-.12,1.44-1.8,2.3-3.21,2.15-1.44-.15-2.68-.97-3.96-1.61-1.3-.65-2.81-1.13-4.12-.6-.1.82.86,1.29,1.63,1.55,2.39.73,4.77,1.48,7.15,2.23-1.76,1.83-4.79,2.24-7,.98-.73-.43-1.38-1.02-2.16-1.4-.77-.39-1.18-1.27-1.65-.55-.65,1.05-.15,2.52.76,3.34.93.83,2.16,1.2,3.34,1.61,2.13.76,4.18,1.73,6.1,2.91-2.24.95-4.44,2.05-6.55,3.28,1.31-.55,3.02.18,3.85,1.43.94,1.4,1.04,3.18,1.11,4.87.1,2.53.18,5.2-.9,7.5-.37.77-.77,1.88-.06,2.34.28.17.61.17.91.14,4.71-.36,8.52-4.01,13.11-5.12,2.6-.62,5.34-.39,8.01-.68,3.34-.35,6.5-1.54,9.67-2.63,8.4-2.92,17.01-5.33,25.84-6.32,7.42-.84,15.03-.64,22.29,1.13,1.73-.07,3.43-.65,4.8-1.66-2.59-1.25-5.55-1.69-8.37-1.27Zm-31.18,1.61c-2.2,1.07-4.25,2.5-6.61,3.13-2.1.57-4.32.46-6.49.62-2.17.17-4.46.68-6.02,2.19,1.52-2.24,3.02-4.54,3.89-7.11.87-2.56,1.07-5.45.01-7.96.55-.44.91-.33,1.58-.1,1.38.5,2.78.98,4.17,1.47.72.26,1.44.51,2.1.9.68.4,1.29.93,1.92,1.4,2.98,2.17,6.56,3.46,10.2,4.15-1.62.03-3.28.58-4.75,1.31Z"/>
    <path class="cls-1" d="m365.19,254.19c.59.13,1.16.28,1.75.45-.79-.2-1.57-.36-2.34-.44.2,0,.39,0,.59-.01Z"/>
    <path class="cls-1" d="m337.51,251.93c-.77-.1-1.55-.22-2.32-.39.79-.01,1.58.1,2.32.39Z"/>
    <path class="cls-1" d="m230.36,230.62c-1.73,1.71-3.59,3.51-5.98,3.97-4.14.81-8.14-2.67-12.32-2.18-1.81.21-3.42,1.15-5.12,1.8-1.97.74-4.06,1.14-6.16,1.12.13-1.18.93-2.15,1.53-3.17.6-1.01,1.04-2.33.42-3.35-.62-1-2.02-1.24-3.17-.95,2.84-.51,4.56-2.71,6.15-5.12,1.5-2.26,2.34-5.32,4.86-6.34,3.03-1.22,6.67,1.31,9.64-.06.93-.44,2.2-1.14,2.78-.28-.25.32-.51.66-.76,1,.97,2.5,4.94,1.85,6.84,3.76,1.09,1.12,1.22,2.85,1.28,4.41.08,2.08-.04,3.33.03,5.4Z"/>
    <path class="cls-1" d="m207.19,266.73c-1.27-.04-2.55.14-3.82.17-2.31.06-4.66-.39-6.79-1.29-3.49,2.13-5.3,6.66-4.25,10.6.4,1.52,1.18,2.92,1.54,4.46.61,2.48.03,5.22-1.49,7.27,1.73-.68,2.89-2.55,2.74-4.39,1.11,1.58,1.4,3.71.77,5.55-.37,1.11-1.05,2.09-1.59,3.14-1.02,1.98-1.59,4.21-1.61,6.43.01-1.95,4.3-4.97,5.67-6.02,2.3-1.76,4.8-3.25,7.15-4.95,1.69-1.19,3.17-2.17,3.81-4.22.83-2.67.14-5.8,1.73-8.25.91-1.4,2.59-2.26,4.26-2.16,1.67.08,3.25,1.12,4,2.63,1.34-1.81,2.66-3.63,3.99-5.44-5.44,1.16-10.55-3.34-16.11-3.53Zm-7.07,11.85c-.1.37-.42.64-.72.87-.33.26-.72.54-1.13.48-.18-.97-.28-1.94-.3-2.91-.17.01-.35.03-.53.06l.51-1.51c-.01.48-.01.97.01,1.45.44-.04.89-.03,1.29.12.57.22,1.04.83.87,1.43Z"/>
    <path class="cls-1" d="m268.54,338.74c-2.48,3.47-6.26,5.77-10.04,7.78-5.17,2.76-10.75,5.21-16.62,5.08-5.29-.11-10.88-2.27-15.68-.07-3.87,1.78-6.62,6.22-10.89,6.34-1.46.04-2.91-.45-4.38-.44-4.04.03-7.24,3.87-11.28,4.17.79-1.07,1.57-2.12,2.34-3.19-7.2-2.16-12.86-8.74-13.91-16.2-.18-1.22-.15-2.68.83-3.44.73,1.7,2.2,2.57,4.06,2.64v-.28c-1.25-1.52-1.46-2.39-2.72-3.9-.55-.66-1.14-1.46-.95-2.3.36-1.74,2.93-1.32,4.56-.65,2.25.94,4.6,1.57,7.02,1.88.8.1,1.67.15,2.34-.31.48-.32.76-.84,1.17-1.25,1.26-1.28,3.35-1.21,5.07-.67,1.71.52,3.34,1.42,5.14,1.5,1.92.08,3.73-.77,5.57-1.31,3.66-1.08,7.68-.88,11.21.52,5.21,2.08,9.28,6.62,14.71,8,4.17,1.05,8.72.03,12.34-2.29,3.62-2.32,6.36-5.82,8.24-9.7.76-1.54,1.52-3.3,3.1-3.96,2.22,3.65,1.28,8.56-1.22,12.03Z"/>
    <path class="cls-1" d="m299.25,400.26c-1.01,3.26-2.4,6.61-5.15,8.6-3.3,2.37-7.75,2.25-11.78,1.7-4.03-.55-8.21-1.4-12.08-.17-.48.15-1,.35-1.49.18-1.22-.41-.93-2.5-2.04-3.17-.87-.53-1.95.14-2.76.77-.8.62-1.97,1.24-2.76.62.44-.72.11-1.7-.51-2.26-.6-.56-1.45-.81-2.25-1.05-2.55-.73-5.57-1.4-7.68.24-.18.14-.39.32-.63.28-.24-.04.1-.38.34-.42-.81-1.25-2.29-1.87-3.71-2.34-9.15-3.07-19.06-2.92-28.67-2.16-5.68.45-11.64,1.19-16.24,4.55-4.25,3.07-6.85,8.14-7.42,13.36-.14,1.38-.17,2.75-.36,4.13-.59,3.89-2.65,7.38-4.66,10.75,1.08-2.81-1.04-5.71-2.4-8.41-1.73-3.42-2.27-7.42-1.54-11.2.49,2.18.83,4.37,1,6.58,1.52-1.64,2.13-3.92,2.26-6.15.13-2.22-.18-4.44-.25-6.65-.21-6.89,1.84-13.66,4.25-20.13.62-1.64,1.29-3.35,2.57-4.58,1.18-1.12,2.75-1.73,4.28-2.3,1.08-.41,2.2-.83,3.34-.67,1.14.15,2.01.93,1.96,2.08-3.21,3.71-8.97,4.79-11.4,9.04-.48.81-.72,2.01.04,2.57.81.6,1.95-.13,2.57-.93.6-.81,1.21-1.82,2.22-1.92-1.17,2.09-2.33,4.17-3.47,6.26.8.14,1.52-.45,2.16-.91.66-.48,1.57-.88,2.23-.44-3.13,2.57-6.36,5.84-6.33,9.9,2.43-1.95,4.95-4.01,6.27-6.84,1.71-.31,3.34-1.07,4.69-2.16.34-.28.67-.59.86-1,.29-.67.35-1.71,1.09-1.75.77,1.39,2.25,2.36,3.83,2.51,1.57.15,3.21-.52,4.22-1.74-.65.74.06,2.06,1.04,2.23.98.17,1.95-.49,2.51-1.32.58,2.02,3.51,2.89,5.09,1.5-.84.8-.08,2.33,1.02,2.04,1.12-.29,1.6-1.74,1.26-2.85,1.29-.04,2.02-1.95,1.09-2.86,2.23.77,4.37,1.88,6.29,3.27.88-.24,1.46-1.28,1.21-2.16-.18-.6-.67-1.07-1.11-1.52-.93-.94-1.74-2.02-2.09-3.3-.36-1.26-.2-2.72.65-3.72-.13,1.19.1,2.43.63,3.52.29.59.8,1.22,1.47,1.19.42-.01.79-.28,1.17-.44.97-.42,2.08-.22,3.12,0,3.51.72,7.03,1.45,10.55,2.16-1.17-.56-2.34-1.14-3.26-2.05-.91-.91-1.52-2.23-1.25-3.48,2.78,2.06,5.57,4.11,8.38,6.15-.15-3.41-2.34-6.65-5.45-8.07,3.49.56,5.71,3.9,8.2,6.43.29.31.63.62,1.04.7,1.14.27,1.92-1.07,2.3-2.15.15-.45.31-.94.11-1.36-.13-.28-.39-.48-.66-.66-.73-.52-1.47-1.04-2.2-1.54,5.73,1.94,11.48,3.87,16.83,6.68,1.35.7,2.65,1.46,4.03,2.11,4.38,2.08,9.22,3.02,14.04,3.64,1.92.25,3.94.44,5.74-.32,1.88-.8,3.17-2.54,4.39-4.2.98,1.45-.25,3.94-.76,5.61Z"/>
    <path class="cls-1" d="m230.7,180.12s.1-.07.14-.1c.32.25.22.28-.14.1Z"/>
    <path class="cls-1" d="m633.55,316.14c0,175.25-142.07,317.32-317.32,317.32-64.93,0-125.29-19.5-175.58-52.97,1.51-3.31,2.85-6.68,4.03-10.14,4.22-12.47,6.06-25.89,4.05-38.91-2.19-14.31-8.88-27.64-11.07-41.96-1.33-8.77-.93-17.58.6-26.29,7.85-20.54,15.69-41.06,23.53-61.58,3.93,20.8,7.86,41.61,11.78,62.41,1.41,7.43,2.81,14.97,2.06,22.5-.51,5.16-1.94,10.79.79,15.21,1.63,2.63,4.47,4.25,7.31,5.51,2.77,1.23,5.59,2.42,8.47,3.54,0,.01.01.01.01.01,10.9,4.28,22.47,7.46,34.14,6.78,16.83-.98,31.81-10.42,48.35-12.88,18.1-2.7,36.31-5.3,53.8-10.88,15.98-5.11,31.19-12.61,47.6-16.38,7.87-1.81,15.83-2.03,23.64-3.83,7.85-1.81,15.61-3.96,23.32-6.25,1.37-.4,2.74-.82,4.11-1.23,4.58-1.38,9.13-2.81,13.7-4.22,6.64-2.08,13.4-4.36,18.97-8.55,7.63-5.73,12.29-14.43,16.61-22.94,3.18-6.3,6.34-12.75,7.42-19.72.64-4.07.54-8.22,1.29-12.29.76-4.05,3.61-7.56,7.06-9.85-1.66,4.17-3.16,9.41-.1,12.68,2.49,2.68,6.66,2.52,10.24,3.25,2.82.55,5.47,1.77,8.21,2.67,11.96,3.92,25.44,1.36,36.31-5,10.88-6.35,19.4-16.14,26.14-26.78,1.7-2.71,3.34-5.49,4.58-8.44,1.91-4.48,3.18-8.8,6.39-12.48,4.95-5.67,10.16-11.94,10.52-19.46.18-3.46-.71-6.88-1.63-10.21-3.02-10.81-6.6-21.66-13.06-30.85-2.74-3.92-6.17-7.6-10.66-9.24-3.69-1.34-7.78-1.19-11.62-.39-16.99,3.47-29.57,18.11-45.94,23.87-2.78.97-5.7,1.7-8.25,3.17-2.57,1.48-4.23,4.03-4.59,6.96-4.68-5.69-10.23-10.6-15-16.19-4.77-5.62-8.86-12.18-9.74-19.48-1.51-12.54,6.48-25.6,2.03-37.42-.97-2.62-2.5-4.97-3.4-7.6-1.56-4.51-1.19-9.59-3.29-13.88-1.11-2.26-2.84-4.14-4.44-6.08-6.56-7.9-9.83-17.58-16.09-25.67-3.47-4.48-8.23-7.94-13.56-9.87,1.83-.9,3.63-1.8,5.45-2.7-2.95-2.44-5.9-4.88-8.86-7.32,1.33.19,2.68.14,3.99-.18.39-.1.8-.25,1-.6.43-.73-.46-1.51-1.23-1.87-1.84-.82-3.81-1.33-5.81-1.52,2.56-.75,5.11-1.49,7.67-2.23-2.17-1.72-4.66-3.07-7.29-3.97,2.3.9,5.08.44,6.96-1.16-1.18-1.41-2.89-2.38-4.71-2.68,1.41-.1,2.82-.53,4.04-1.26-1.73-2.55-4.35-4.47-7.31-5.36,1.99.58,4.26.12,5.88-1.16-5.47-3.24-10.19-7.69-13.66-12.99,2.02,1.15,3.78,2.77,5.96,3.57,2.17.8,5.09.4,6.13-1.67.79-1.59.18-3.49-.42-5.18-.25-.65-.5-1.3-.97-1.8-.51-.51-1.22-.79-1.9-1.02-3.9-1.33-8.46-2.68-10.1-6.45,3.53,1.31,6.49,2.27,9.87.65-2.99-6.74-10.01-11.47-17.37-11.72-8.03-.26-16.74,4.21-23.64.08-2.59-1.54-4.62-4.18-7.58-4.71-1.52-.29-3.1.08-4.65.32-6.14,1-12.57.26-18.34-2.06-3.14-1.26-6.09-2.99-9.34-3.96-7.65-2.28-15.89-.04-23.43,2.62-28.44,9.98-55.4,26.33-73.33,50.57-2.82,3.79-5.4,7.76-8.39,11.42-3.78,4.65-8.21,8.75-13.05,12.27-.32-.26-.25-.77-.14-1.18,1.97-7.18,6.71-13.84,6.19-21.26-.43-5.84-4.12-11.1-4.29-16.95-.12-5.11,2.44-9.84,4.91-14.31,1.77-3.16,3.54-6.32,5.84-9.11,6.05-7.35,15.25-11.4,24.45-13.88,9.2-2.45,18.74-3.58,27.83-6.41,7.21-2.27,14.05-5.56,20.65-9.24,3.32-1.87,6.67-3.85,10.37-4.76,2.27-.55,4.64-.69,6.89-1.38,6.79-2.09,11.02-8.62,16.09-13.6.76-.75,1.59-1.48,2.62-1.8.86-.26,1.8-.21,2.71-.25,2.74-.14,5.4-1.38,7.25-3.4,4.18-4.55,12.62-5.47,18.78-5.8,6.75-.36,13.49-.72,20.25-1.07,4.37-.25,8.76-.48,13.15-.32,11.49.44,22.71,3.61,33.75,6.86,10.55,3.13,21.46,6.56,29.49,14.09,3.07,2.89,6.5,6.6,10.63,5.83.01-.14.08-.26.22-.3,17.52,2.85,34.13,11.02,47.09,23.17,6.74,6.32,12.51,13.7,19.61,19.65,8.08,6.78,17.64,11.53,26.39,17.42,32.88,49.99,52.01,109.82,52.01,174.13Z"/>
    <path class="cls-1" d="m584.83,327.51c-.22-1.71-1.99-2.69-3.49-3.55-6.53-3.75-11.51-9.99-18.46-12.93-1.19-.49-2.46-.9-3.75-.86-.9.03-1.78.27-2.64.55-3.79,1.19-7.41,2.93-10.69,5.18-3.73,2.54-7.31,5.82-11.8,6.33-1.18.14-2.39.07-3.54.38-1.15.32-2.27,1.15-2.46,2.33-.2,1.28.77,2.44,1.73,3.33,2.41,2.25,5.21,4.06,7.55,6.37,2.36,2.32,4.29,5.32,4.32,8.62.01.86-.11,1.73.04,2.58.46,2.37,2.95,3.79,4.1,5.92,1.42,2.64.34,6.33-2.29,7.79-.35.2-.79.35-1.15.2-.29-.13-.48-.42-.65-.7-1.11-1.91-2.23-3.83-3.34-5.74-.59-.98-1.19-2.01-2.15-2.64-.97-.63-2.37-.74-3.17.07-.42.44-.63,1.04-1.08,1.42-1.07.88-2.67.03-3.65-.94-.97-.97-2.06-2.19-3.42-2.01-1.14.15-1.92,1.26-2.13,2.39-.2,1.12.03,2.27.15,3.4.36,3.37-.29,6.84-1.85,9.84-.42.83-.98,1.67-1.85,2.01-1.33.52-2.76-.34-4.08-.91-1.32-.58-3.24-.65-3.79.69-1.18-1.49-.06-3.64,1.07-5.17,1.47-2.02,2.95-4.04,4.44-6.05.88-1.21,1.77-2.44,2.32-3.83.59-1.53.74-3.19,1.02-4.8.86-5.04,2.99-10.05,2.18-15.1-.13-.76-.34-1.56-.91-2.08-1.15-1.02-2.76-.25-3.69.69-1.05,1.07-.76,3.42-1.74,4.15-2.85,2.15-4.53-5.68-4.46-7.23.18-4.35,3.79-7.71,7.19-10.44,10.06-8.13,20.94-15.65,33.31-19.45,3.26-1.01,6.71-1.74,10.06-1.18,4.84.84,8.79,4.24,12.46,7.5,1.74,1.54,3.49,3.12,4.91,4.95,4.04,5.31,4.86,12.31,5.4,18.93Z"/>
    <path class="cls-1" d="m553.13,376.23c-2.86.75-13.34,1.92-12.51,6.48.42,2.23,3.1,3.04,4.89,3.68,2.62.91,5.42,2.66,8.29,2.34,2.02-.22,3.86-1.63,4.61-3.53.73-1.83.46-3.86.55-5.81.14-2.92,1.13-5.78,2.84-8.16-1.98,2.77-5.37,4.17-8.66,5.01Zm1.15,7.1c-.28,1.12-1.07,2.09-2.09,2.6-.28.12-.61.22-.87.07-.11-.08-.19-.21-.26-.35-.48-.98-.15-2.28.71-2.92.65-.21,1.34-.25,2.01-.14.19.03.4.08.5.25.08.14.06.32.01.48Z"/>
    <path class="cls-1" d="m551.97,382.58c-.07.04-.14.08-.21.15-.17.04-.33.1-.5.17l.71-.32Z"/>
    <path class="cls-1" d="m317.2,271.59c-1.56,1.47-3.65,2.2-5.73,2.75-1.39.36-2.81.65-4.22.84-4.42.6-10.16.6-14.09-1.84.84.21,1.7.2,2.54.32.53.08,1.05.24,1.6.25.51.01,1-.1,1.49-.22,1.38-.32,2.72-.73,4.04-1.22-1.63-.25-3.44-.63-4.35-2.01,2.61.63,5.24,1.18,7.87,1.64,3.62.63,7.52,1.07,10.85-.52Z"/>
    <path class="cls-1" d="m217.42,421.14c-.83,2.32-2.46,4.32-4.55,5.61-2.29,1.4-5.29,1.4-7.42-.29-.86-.67-2.6-1.98-1.49-2.86.98-.79,4.44-.36,5.66-.36,1.39,0,2.79.06,4.17-.2,1.38-.24,2.74-.83,3.64-1.89Z"/>
    <path class="cls-1" d="m202.53,439.05c-.9-.83-2.08-1.35-3.31-1.43-.79-.06-1.59.06-2.36-.06-1.08-.13-1.77-.67-2.06-1.71-.17-.62-.25-2.5.29-2.93,1.21-.97,2.88,3.68,4.38.6.27-.55.31-1.29.86-1.54.27,1.38.76,2.71,1.46,3.92.28.49.6.97.79,1.5.2.55.24,1.16-.04,1.66Z"/>
  </g>
</svg>