<?xml version="1.0" encoding="UTF-8"?>
<svg id="Layer_1" data-name="Layer 1" xmlns="http://www.w3.org/2000/svg" viewBox="0 0 633.55 633.46">
  <defs>
    <style>
      .cls-1 {
        fill: #282827;
        stroke-width: 0px;
      }
    </style>
  </defs>
  <g>
    <path class="cls-1" d="m269.72,247.63c-.54-.61-1.61-1.57-1.24-1.37.55.31.99.8,1.24,1.37Z"/>
    <path class="cls-1" d="m269.87,248.04c-.04-.14-.08-.27-.15-.41.22.26.34.45.15.41Z"/>
    <path class="cls-1" d="m327.86,208.95c1.45,1.19,3,2.25,4.64,3.15-1.93-.57-4.08-.78-6.09-.57-.96.11-1.89.39-2.85.6-4.03.87-8.59.31-11.93,2.72.42-.74-.38-1.7-1.24-1.76-.85-.07-1.64.45-2.34.93-1.11.76-2.22,1.51-3.31,2.27.28-.81.58-1.62.87-2.43-2.2,1.12-4.22,2.64-5.92,4.45-.31-.42-.61-.84-.92-1.26-2.6,2.04-5.19,4.08-7.79,6.13-.26.2-.53.41-.85.42-.57.01-.95-.57-1.2-1.07-.51-1-1.04-2-1.56-3-1-.01-1.97.57-2.45,1.45-.77.15-1.43-.53-2-1.08-.57-.54-1.49-.88-2.1-.37-.78-5.33,2-11.01,6.69-13.65-1.23,1.65-2.1,3.58-2.52,5.61,2.69-3.16,5.88-5.9,9.4-8.1-1.14,1.14-2.11,2.43-2.88,3.85,2.27-2.27,5.38-3.5,8.51-4.25,3.11-.76,6.32-1.08,9.43-1.88,3.1-.8,6.24-2.08,9.39-1.5.99.18,2,.54,2.98.28.99-.26,1.74-1.54,1.07-2.3,2.69.68,5.3,1.73,7.71,3.12.46.26.91.54,1.26.92.3.32.51.7.8,1.03.84.95,2.15,1.27,3.31,1.77,1.47.65,2.77,1.62,4.06,2.58.96.72,1.95,1.47,2.45,2.56-3.96-2.29-8.02-4.45-12.15-6.46-2.52-1.23-5.61-2.38-7.98-.88,1.64.43,3.26.87,4.88,1.3-.58.49-1.15.99-1.73,1.47.43.27.92.45,1.43.51-.23.41-.57.76-.96,1.01,1.79-.83,4.11-.26,5.32,1.3-1.22-.26-2.57.18-3.41,1.11Z"/>
    <path class="cls-1" d="m346.14,202.24c.68.95,1.37,1.89,2.04,2.84-.91-.01-1.54-.88-1.95-1.68-.42-.81-.84-1.73-1.69-2.04-.28-.09-.6-.12-.84-.3-.39-.28-.5-.88-.93-1.1-.24-.12-.54-.09-.81-.14-1.08-.15-1.65-1.37-2.56-1.97-.46-.31-1.01-.46-1.46-.8-.53-.43-.97-1.11-1.37-1.64,1.3-.18,2.56.85,3.34,1.8.31.39.62.81,1.1.96.46.16,1.11-.15,1.05-.64-.03-.34-.35-.57-.64-.76-1.14-.77-2.11-1.8-2.81-2.98,2.6,1.72,5.19,3.44,7.79,5.15.5.32,1,.66,1.38,1.15.55.72.74,1.66,1.15,2.48-1.14-1.26-3.35-1.65-4.15-3.22-.08-.14-.14-.28-.27-.37-.37-.24-.81.32-.68.74.15.42.57.65.92.92.55.43.97,1,1.38,1.57Z"/>
    <path class="cls-1" d="m362.06,257.83c.63-.31,1.25-.61,1.89-.92.83-.4,1.71-.85,2.15-1.68-.75.25-1.53.32-2.31.17-1.51-.27-3.05-1.27-4.45-.65,1.27-1.01,2.37-2.23,3.31-3.56-1.39.67-2.65,1.51-4.11,1.96-3.11-1.08-6.24-2.16-9.16-3.67-.51-.25-1.01-.52-1.56-.64-.45-.11-.91-.11-1.36-.09-1.4.04-2.81.2-4.19.44-.03-.11.05-.05.03-.16-10.87-7.19-24.34-10.33-37.25-8.71-1.28.16-2.61.35-3.81-.12,1.45-2.51,3.57-4.64,6.09-6.12-2.56.83-4.88,2.27-6.75,4.19-.43.44-.87.92-1.47.97-.48.05-.99-.19-1.44-.03-.65.23-.79,1.05-.81,1.75-.91-.49-1.68-1.25-2.19-2.17-.49.93-.39,2.15.25,2.97-1.52-.68-2.84-1.8-3.77-3.17-.51,1.08.31,2.29,1.15,3.15.84.84,1.81,1.81,1.72,2.99-.12,1.39-1.73,2.21-3.09,2.07-1.39-.15-2.59-.93-3.81-1.55-1.25-.63-2.71-1.09-3.97-.57-.09.79.83,1.24,1.57,1.49,2.31.71,4.6,1.43,6.89,2.15-1.69,1.76-4.61,2.16-6.75.95-.71-.41-1.33-.99-2.08-1.35-.75-.37-1.13-1.23-1.59-.53-.63,1.01-.15,2.43.73,3.21.89.8,2.08,1.16,3.21,1.55,2.05.73,4.03,1.67,5.88,2.8-2.16.92-4.28,1.97-6.31,3.16,1.27-.53,2.91.17,3.71,1.37.91,1.35,1,3.07,1.07,4.69.09,2.44.17,5.01-.87,7.23-.36.75-.75,1.81-.05,2.25.27.16.59.16.88.13,4.53-.35,8.21-3.87,12.63-4.93,2.51-.6,5.15-.37,7.72-.65,3.21-.33,6.27-1.48,9.32-2.53,8.09-2.81,16.39-5.13,24.9-6.09,7.15-.81,14.48-.61,21.48,1.09,1.67-.07,3.31-.63,4.63-1.6-2.49-1.2-5.35-1.63-8.07-1.23Zm-30.04,1.55c-2.12,1.03-4.09,2.41-6.37,3.01-2.03.55-4.16.44-6.25.6-2.09.16-4.29.65-5.8,2.11,1.47-2.16,2.91-4.37,3.75-6.85.84-2.47,1.03-5.25.01-7.67.53-.43.88-.32,1.52-.09,1.33.48,2.68.95,4.01,1.41.69.25,1.39.49,2.03.87.65.39,1.24.89,1.85,1.35,2.87,2.09,6.32,3.33,9.83,4-1.56.03-3.16.56-4.57,1.27Z"/>
    <path class="cls-1" d="m365.5,260.65c.57.12,1.12.27,1.69.43-.76-.19-1.51-.35-2.26-.42.19,0,.38,0,.57-.01Z"/>
    <path class="cls-1" d="m338.83,258.48c-.75-.09-1.49-.21-2.24-.37.76-.01,1.52.09,2.24.37Z"/>
    <path class="cls-1" d="m235.58,237.95c-1.66,1.65-3.46,3.38-5.76,3.83-3.99.78-7.84-2.57-11.88-2.1-1.74.2-3.3,1.11-4.94,1.73-1.89.72-3.91,1.1-5.94,1.08.12-1.14.89-2.07,1.47-3.06.58-.97,1-2.25.41-3.23-.6-.96-1.95-1.19-3.06-.92,2.73-.49,4.4-2.61,5.92-4.94,1.45-2.18,2.26-5.13,4.68-6.11,2.92-1.18,6.42,1.26,9.29-.05.89-.42,2.12-1.1,2.68-.27-.24.31-.49.64-.73.96.93,2.41,4.76,1.79,6.59,3.62,1.05,1.08,1.18,2.75,1.23,4.25.08,2-.04,3.21.03,5.21Z"/>
    <path class="cls-1" d="m213.25,272.74c-1.23-.04-2.45.13-3.68.16-2.23.05-4.49-.37-6.55-1.24-3.36,2.05-5.11,6.41-4.09,10.21.39,1.47,1.13,2.81,1.48,4.29.59,2.39.03,5.03-1.44,7,1.67-.65,2.79-2.45,2.64-4.23,1.07,1.52,1.35,3.57.75,5.35-.36,1.07-1.01,2.01-1.53,3.03-.99,1.91-1.53,4.05-1.55,6.2.01-1.88,4.15-4.79,5.47-5.8,2.21-1.69,4.63-3.13,6.89-4.77,1.63-1.15,3.05-2.09,3.67-4.07.8-2.57.13-5.59,1.67-7.95.88-1.35,2.49-2.17,4.11-2.08,1.61.08,3.13,1.08,3.85,2.53,1.29-1.75,2.56-3.49,3.84-5.24-5.24,1.12-10.16-3.21-15.52-3.4Zm-6.81,11.41c-.09.36-.4.61-.69.84-.32.25-.69.52-1.09.47-.17-.93-.27-1.87-.29-2.8-.16.01-.33.03-.51.05l.49-1.45c-.01.47-.01.93.01,1.4.43-.04.85-.03,1.24.12.55.21,1,.8.84,1.37Z"/>
    <path class="cls-1" d="m272.37,342.13c-2.39,3.34-6.03,5.56-9.67,7.49-4.98,2.66-10.36,5.02-16.01,4.9-5.1-.11-10.48-2.19-15.11-.07-3.73,1.72-6.38,5.99-10.5,6.11-1.41.04-2.8-.43-4.22-.42-3.9.03-6.98,3.73-10.87,4.02.76-1.03,1.51-2.04,2.26-3.07-6.94-2.08-12.39-8.43-13.4-15.61-.18-1.18-.15-2.58.8-3.31.7,1.64,2.12,2.48,3.91,2.54v-.27c-1.2-1.46-1.41-2.3-2.62-3.76-.53-.64-1.1-1.41-.92-2.22.35-1.68,2.83-1.27,4.4-.62,2.16.91,4.44,1.51,6.76,1.81.77.09,1.61.15,2.26-.3.46-.31.73-.81,1.12-1.2,1.22-1.23,3.23-1.16,4.88-.65,1.65.5,3.22,1.37,4.95,1.45,1.85.08,3.6-.74,5.37-1.26,3.53-1.04,7.4-.85,10.81.5,5.02,2,8.94,6.38,14.17,7.71,4.02,1.01,8.4.03,11.89-2.2,3.49-2.23,6.13-5.61,7.94-9.35.73-1.49,1.46-3.18,2.99-3.81,2.14,3.52,1.23,8.25-1.18,11.59Z"/>
    <path class="cls-1" d="m301.96,401.41c-.97,3.14-2.31,6.37-4.96,8.29-3.18,2.29-7.47,2.16-11.35,1.64-3.88-.53-7.91-1.35-11.65-.16-.46.15-.96.34-1.43.18-1.18-.39-.89-2.41-1.96-3.06-.84-.51-1.88.14-2.66.74-.77.6-1.89,1.19-2.66.6.42-.69.11-1.64-.49-2.18-.58-.54-1.39-.78-2.16-1.01-2.46-.7-5.37-1.35-7.4.23-.18.14-.38.31-.61.27-.23-.04.09-.37.32-.41-.78-1.2-2.2-1.8-3.57-2.26-8.82-2.96-18.37-2.81-27.63-2.08-5.48.43-11.21,1.15-15.65,4.38-4.1,2.96-6.6,7.84-7.15,12.88-.14,1.33-.16,2.65-.35,3.98-.57,3.75-2.56,7.11-4.49,10.36,1.04-2.71-1-5.5-2.31-8.1-1.66-3.3-2.19-7.15-1.49-10.79.47,2.1.8,4.21.96,6.34,1.46-1.58,2.06-3.77,2.18-5.92.12-2.14-.18-4.27-.24-6.41-.2-6.64,1.77-13.16,4.1-19.39.6-1.58,1.24-3.23,2.48-4.41,1.14-1.08,2.65-1.66,4.13-2.22,1.04-.39,2.12-.8,3.22-.65,1.1.15,1.93.89,1.89,2-3.1,3.57-8.64,4.61-10.98,8.71-.46.78-.69,1.93.04,2.48.78.58,1.88-.12,2.47-.89.58-.78,1.16-1.76,2.14-1.85-1.12,2.02-2.25,4.02-3.34,6.03.77.14,1.46-.43,2.08-.88.64-.46,1.51-.85,2.15-.42-3.02,2.48-6.13,5.63-6.1,9.54,2.34-1.88,4.77-3.87,6.05-6.59,1.65-.3,3.22-1.03,4.52-2.08.32-.27.65-.57.83-.96.28-.65.34-1.65,1.05-1.69.74,1.34,2.16,2.27,3.69,2.42,1.51.15,3.1-.5,4.07-1.68-.62.72.05,1.99,1,2.15.95.16,1.88-.47,2.42-1.27.55,1.95,3.38,2.79,4.91,1.45-.81.77-.08,2.25.99,1.96,1.08-.28,1.54-1.68,1.22-2.75,1.24-.04,1.95-1.88,1.05-2.76,2.15.74,4.21,1.81,6.06,3.15.85-.23,1.41-1.23,1.16-2.08-.18-.58-.65-1.03-1.07-1.46-.89-.91-1.68-1.95-2.02-3.18-.35-1.22-.19-2.62.62-3.58-.12,1.15.09,2.34.61,3.39.28.57.77,1.18,1.42,1.15.41-.01.76-.27,1.12-.42.93-.41,2-.22,3,0,3.38.69,6.78,1.39,10.17,2.08-1.12-.54-2.26-1.1-3.14-1.97-.88-.88-1.46-2.15-1.2-3.35,2.68,1.99,5.37,3.96,8.07,5.92-.15-3.29-2.26-6.41-5.25-7.78,3.37.54,5.5,3.76,7.9,6.19.28.3.61.6,1,.68,1.1.26,1.85-1.03,2.22-2.07.15-.43.3-.91.11-1.31-.12-.27-.38-.46-.64-.64-.7-.5-1.42-1-2.12-1.49,5.52,1.87,11.06,3.73,16.22,6.44,1.3.68,2.56,1.41,3.88,2.03,4.22,2,8.89,2.91,13.53,3.5,1.85.24,3.8.42,5.53-.31,1.81-.77,3.06-2.45,4.23-4.04.95,1.39-.24,3.8-.73,5.41Z"/>
    <path class="cls-1" d="m235.91,189.28s.09-.07.14-.09c.31.24.22.27-.14.09Z"/>
    <path class="cls-1" d="m577.16,331.31c-.22-1.65-1.92-2.6-3.37-3.42-6.29-3.61-11.09-9.63-17.79-12.46-1.15-.47-2.37-.87-3.61-.83-.87.03-1.72.26-2.54.53-3.65,1.15-7.14,2.83-10.31,4.99-3.6,2.45-7.05,5.61-11.37,6.1-1.14.14-2.3.07-3.41.37-1.11.31-2.19,1.11-2.37,2.25-.19,1.23.74,2.35,1.66,3.21,2.33,2.16,5.02,3.91,7.28,6.14,2.27,2.23,4.14,5.13,4.17,8.3.01.83-.11,1.66.04,2.49.45,2.29,2.84,3.65,3.95,5.71,1.37,2.54.32,6.1-2.2,7.51-.34.19-.76.34-1.11.19-.28-.12-.46-.41-.62-.68-1.07-1.84-2.15-3.69-3.22-5.53-.57-.95-1.15-1.93-2.07-2.54-.93-.61-2.29-.72-3.06.07-.41.42-.61,1-1.04,1.37-1.03.85-2.57.03-3.52-.91-.93-.93-1.99-2.11-3.3-1.93-1.1.15-1.85,1.22-2.06,2.3-.19,1.08.03,2.19.15,3.27.35,3.25-.28,6.59-1.79,9.48-.41.8-.95,1.61-1.79,1.93-1.28.5-2.66-.32-3.94-.88-1.27-.55-3.12-.62-3.65.66-1.14-1.43-.05-3.5,1.03-4.98,1.42-1.95,2.84-3.9,4.27-5.83.85-1.16,1.7-2.35,2.23-3.69.57-1.47.72-3.07.99-4.63.83-4.86,2.88-9.68,2.1-14.55-.12-.73-.32-1.5-.88-2-1.11-.99-2.66-.24-3.56.66-1.01,1.03-.73,3.3-1.68,4-2.75,2.07-4.37-5.48-4.3-6.97.18-4.19,3.65-7.43,6.92-10.06,9.7-7.83,20.18-15.08,32.09-18.75,3.14-.97,6.47-1.68,9.7-1.14,4.67.81,8.47,4.08,12.01,7.22,1.68,1.49,3.37,3,4.73,4.77,3.9,5.11,4.68,11.86,5.21,18.25Z"/>
    <path class="cls-1" d="m546.61,378.26c-2.76.72-12.86,1.85-12.06,6.24.4,2.15,2.99,2.93,4.71,3.55,2.52.88,5.23,2.56,7.99,2.25,1.95-.21,3.72-1.57,4.44-3.4.71-1.76.44-3.72.53-5.6.13-2.81,1.09-5.57,2.73-7.87-1.91,2.67-5.17,4.01-8.35,4.83Zm1.11,6.84c-.27,1.08-1.03,2.01-2.01,2.51-.27.12-.59.21-.84.07-.11-.08-.19-.2-.25-.33-.47-.95-.15-2.2.68-2.81.63-.2,1.29-.24,1.93-.13.19.03.39.08.48.24.08.13.05.31.01.47Z"/>
    <path class="cls-1" d="m545.49,384.38c-.07.04-.13.08-.2.15-.16.04-.32.09-.48.16l.68-.31Z"/>
    <path class="cls-1" d="m319.26,277.43c-1.5,1.42-3.52,2.12-5.52,2.65-1.34.35-2.71.62-4.07.81-4.26.58-9.79.58-13.58-1.77.81.2,1.64.19,2.45.31.51.08,1.01.23,1.54.24.49.01.96-.09,1.43-.22,1.33-.31,2.62-.7,3.9-1.18-1.57-.24-3.31-.61-4.19-1.93,2.52.61,5.04,1.14,7.59,1.58,3.49.61,7.25,1.03,10.45-.5Z"/>
    <path class="cls-1" d="m223.11,421.53c-.8,2.23-2.37,4.17-4.38,5.41-2.2,1.35-5.1,1.35-7.15-.28-.83-.65-2.5-1.91-1.43-2.76.95-.76,4.27-.35,5.45-.35,1.34,0,2.69.05,4.02-.19,1.33-.23,2.64-.8,3.5-1.83Z"/>
    <path class="cls-1" d="m208.76,438.79c-.87-.8-2-1.3-3.19-1.38-.76-.05-1.53.05-2.27-.05-1.04-.12-1.7-.65-1.99-1.65-.16-.6-.24-2.41.28-2.83,1.16-.93,2.77,3.54,4.22.58.26-.53.3-1.24.82-1.49.26,1.33.73,2.61,1.41,3.77.27.47.58.93.76,1.45.19.53.23,1.12-.04,1.6Z"/>
  </g>
  <path class="cls-1" d="m539.95,94.67C480.34,35.06,401.08,2.23,316.78,2.23S153.21,35.06,93.6,94.67C33.99,154.28,1.16,233.54,1.16,317.85s32.83,163.56,92.44,223.17c59.61,59.61,138.87,92.44,223.17,92.44s163.56-32.83,223.17-92.44c59.61-59.61,92.44-138.87,92.44-223.17s-32.83-163.56-92.44-223.17ZM16.58,317.85C16.58,152.32,151.25,17.65,316.78,17.65c101.32,0,191.08,50.46,245.46,127.56-4.74-2.89-9.42-5.88-13.68-9.44-6.84-5.73-12.4-12.85-18.9-18.94-12.49-11.71-28.49-19.58-45.38-22.33-.13.04-.2.16-.21.29-3.97.75-7.29-2.82-10.24-5.61-7.73-7.26-18.25-10.56-28.42-13.58-10.64-3.13-21.45-6.19-32.52-6.61-4.23-.16-8.45.07-12.67.31-6.5.33-13,.67-19.5,1.02-5.94.32-14.07,1.2-18.1,5.59-1.79,1.95-4.35,3.15-6.99,3.28-.89.05-1.79,0-2.62.24-.98.31-1.78,1.01-2.52,1.73-4.9,4.8-8.96,11.1-15.51,13.11-2.17.66-4.45.8-6.64,1.33-3.56.88-6.78,2.78-9.98,4.59-6.36,3.55-12.95,6.72-19.9,8.9-8.76,2.73-17.95,3.82-26.82,6.18-8.87,2.39-17.73,6.29-23.56,13.38-2.22,2.68-3.92,5.73-5.63,8.78-2.39,4.31-4.86,8.87-4.73,13.79.15,5.64,3.72,10.71,4.13,16.33.5,7.15-4.08,13.56-5.96,20.48-.11.4-.17.89.14,1.14,4.66-3.4,8.93-7.34,12.58-11.82,2.88-3.53,5.36-7.35,8.08-11,17.29-23.35,43.27-39.11,70.66-48.73,7.28-2.55,15.21-4.72,22.58-2.52,3.14.93,5.97,2.6,9,3.82,5.57,2.24,11.76,2.94,17.67,1.99,1.49-.23,3.02-.59,4.48-.31,2.85.5,4.82,3.05,7.3,4.53,6.65,3.98,15.04-.33,22.78-.08,7.09.24,13.86,4.8,16.74,11.29-3.26,1.56-6.11.65-9.51-.63,1.59,3.63,5.97,4.93,9.73,6.22.66.23,1.34.49,1.83.98.45.48.69,1.11.93,1.73.57,1.63,1.16,3.46.39,4.99-.99,2-3.81,2.39-5.91,1.61-2.1-.77-3.8-2.33-5.74-3.44,3.34,5.11,7.89,9.4,13.16,12.53-1.56,1.23-3.75,1.68-5.67,1.12,2.85.86,5.37,2.71,7.03,5.16-1.18.7-2.53,1.12-3.89,1.21,1.74.29,3.4,1.22,4.54,2.58-1.82,1.55-4.5,1.99-6.71,1.12,2.52.87,4.93,2.18,7.02,3.83-2.47.71-4.92,1.43-7.39,2.15,1.94.19,3.83.68,5.6,1.46.75.35,1.6,1.1,1.19,1.8-.19.34-.59.48-.96.58-1.25.31-2.56.36-3.84.17,2.86,2.34,5.69,4.7,8.54,7.05-1.76.87-3.5,1.73-5.25,2.6,5.14,1.85,9.72,5.18,13.07,9.5,6.04,7.81,9.18,17.12,15.5,24.74,1.55,1.87,3.22,3.68,4.29,5.86,2.02,4.13,1.67,9.03,3.17,13.38.87,2.53,2.35,4.8,3.28,7.32,4.29,11.39-3.41,23.97-1.96,36.06.86,7.03,4.79,13.36,9.39,18.77,4.61,5.39,9.95,10.12,14.45,15.6.35-2.82,1.95-5.28,4.43-6.71,2.45-1.42,5.26-2.12,7.95-3.05,15.77-5.54,27.9-19.66,44.27-23,3.71-.77,7.64-.92,11.2.38,4.33,1.59,7.63,5.14,10.27,8.9,6.22,8.86,9.68,19.31,12.58,29.73.9,3.21,1.75,6.5,1.58,9.84-.35,7.25-5.37,13.29-10.14,18.75-3.09,3.55-4.32,7.71-6.16,12.03-1.2,2.84-2.78,5.52-4.41,8.13-6.49,10.25-14.71,19.69-25.2,25.81-10.47,6.12-23.46,8.59-34.99,4.82-2.64-.87-5.18-2.04-7.9-2.57-3.46-.71-7.47-.55-9.88-3.14-2.94-3.14-1.5-8.2.1-12.21-3.31,2.21-6.06,5.59-6.8,9.49-.71,3.92-.63,7.92-1.23,11.84-1.04,6.72-4.09,12.93-7.15,19-4.16,8.2-8.65,16.58-16.01,22.11-5.37,4.05-11.88,6.24-18.28,8.25-4.4,1.36-8.79,2.73-13.2,4.07-1.32.4-2.64.8-3.96,1.19-7.43,2.22-14.91,4.28-22.47,6.02-7.52,1.73-15.19,1.95-22.77,3.7-15.82,3.63-30.48,10.87-45.88,15.78-16.85,5.38-34.4,7.88-51.84,10.48-15.94,2.37-30.38,11.47-46.6,12.41-11.24.66-22.38-2.41-32.9-6.53,0,0,0,0,0,0-2.78-1.08-5.49-2.23-8.16-3.42-2.74-1.2-5.46-2.77-7.04-5.3-2.62-4.26-1.25-9.68-.75-14.66.71-7.26-.63-14.52-1.99-21.68-3.77-20.04-7.55-40.11-11.34-60.15-7.55,19.78-15.11,39.56-22.67,59.35-1.46,8.4-1.85,16.88-.57,25.33,2.1,13.8,8.56,26.64,10.67,40.43,1.93,12.55.15,25.48-3.91,37.49-.37,1.1-.76,2.18-1.18,3.26-81.43-53.74-135.25-146.06-135.25-250.71Z"/>
</svg>